<svg width="1280" height="800" viewBox="0 0 1280 800" fill="none" xmlns="http://www.w3.org/2000/svg">
  <rect width="1280" height="800" fill="#0F172A"/>
  <rect x="56" y="56" width="1168" height="688" rx="28" fill="#111827" stroke="#334155" stroke-width="2"/>
  <rect x="96" y="104" width="320" height="44" rx="12" fill="#1E293B"/>
  <rect x="96" y="188" width="500" height="168" rx="24" fill="url(#paint0_linear)"/>
  <rect x="620" y="188" width="564" height="168" rx="24" fill="#1F2937"/>
  <rect x="96" y="388" width="338" height="300" rx="24" fill="#172033"/>
  <rect x="471" y="388" width="338" height="300" rx="24" fill="#172033"/>
  <rect x="846" y="388" width="338" height="300" rx="24" fill="#172033"/>
  <circle cx="1120" cy="126" r="18" fill="#38BDF8"/>
  <path d="M132 240H428" stroke="white" stroke-opacity="0.92" stroke-width="24" stroke-linecap="round"/>
  <path d="M132 286H372" stroke="#BFDBFE" stroke-opacity="0.9" stroke-width="18" stroke-linecap="round"/>
  <path d="M662 240H923" stroke="#E5E7EB" stroke-width="20" stroke-linecap="round"/>
  <path d="M662 284H1114" stroke="#94A3B8" stroke-width="16" stroke-linecap="round"/>
  <path d="M138 459H356" stroke="#E5E7EB" stroke-width="18" stroke-linecap="round"/>
  <path d="M138 505H284" stroke="#64748B" stroke-width="14" stroke-linecap="round"/>
  <path d="M513 459H731" stroke="#E5E7EB" stroke-width="18" stroke-linecap="round"/>
  <path d="M513 505H659" stroke="#64748B" stroke-width="14" stroke-linecap="round"/>
  <path d="M888 459H1106" stroke="#E5E7EB" stroke-width="18" stroke-linecap="round"/>
  <path d="M888 505H1034" stroke="#64748B" stroke-width="14" stroke-linecap="round"/>
  <defs>
    <linearGradient id="paint0_linear" x1="96" y1="188" x2="596" y2="356" gradientUnits="userSpaceOnUse">
      <stop stop-color="#0EA5E9"/>
      <stop offset="1" stop-color="#22C55E"/>
    </linearGradient>
  </defs>
</svg>
